<?xml version="1.0" encoding="utf-8"?>
<!-- Generator: Adobe Illustrator 22.1.0, SVG Export Plug-In . SVG Version: 6.00 Build 0)  -->
<svg version="1.1" id="Layer_1" xmlns="http://www.w3.org/2000/svg" xmlns:xlink="http://www.w3.org/1999/xlink" x="0px" y="0px"
	 viewBox="0 0 511.5 682.1" style="enable-background:new 0 0 511.5 682.1;" xml:space="preserve">
<title>connect-regular</title>
<path d="M404.7,234.3c-25.1,0-49.5,8.9-68.7,25.1L202.8,154.5c26.3-52.9,4.7-117.1-48.3-143.4S37.4,6.5,11.2,59.4
	S6.5,176.5,59.4,202.8c38.1,18.9,83.8,13.4,116.4-13.9l133.1,104.8c-14.9,29.9-14.9,65,0,94.9L175.8,493.4
	c-45.2-38-112.6-32.1-150.6,13.1S-6.9,619.1,38.3,657.1s112.6,32.1,150.6-13.1c27.3-32.5,32.8-78.2,13.9-116.3L336,422.9
	c45.2,37.9,112.6,32.1,150.5-13.1c37.9-45.2,32.1-112.6-13.1-150.5C454.1,243.1,429.8,234.3,404.7,234.3z M106.5,167.5
	c-33.8,0-61.1-27.4-61.1-61.1s27.4-61.1,61.1-61.1s61.1,27.4,61.1,61.1S140.3,167.5,106.5,167.5z M105.4,638.1
	c-33.8,0-61.1-27.4-61.1-61.1s27.4-61.1,61.1-61.1s61.1,27.4,61.1,61.1S139.2,638.1,105.4,638.1z M406.8,402.3
	c-33.8,0-61.1-27.4-61.1-61.1S373,280,406.8,280s61.1,27.4,61.1,61.1S440.6,402.3,406.8,402.3z"/>
</svg>
